<svg version="1.2" baseProfile="tiny-ps" xmlns="http://www.w3.org/2000/svg" viewBox="0 0 1536 1536" width="1024" height="1024">
	<title>behance</title>
	<style>
		tspan { white-space:pre }
		.shp0 { fill: #053eff } 
		.shp1 { fill: #ffffff } 
	</style>
	<path id="Layer copy" fill-rule="evenodd" class="shp0" d="M1248 0C1327.33 0 1395.17 28.17 1451.5 84.5C1507.83 140.83 1536 208.67 1536 288L1536 1248C1536 1327.33 1507.83 1395.17 1451.5 1451.5C1395.17 1507.83 1327.33 1536 1248 1536L288 1536C208.67 1536 140.83 1507.83 84.5 1451.5C28.17 1395.17 0 1327.33 0 1248L0 288C0 208.67 28.17 140.83 84.5 84.5C140.83 28.17 208.67 0 288 0L1248 0Z" />
	<path id="Layer" fill-rule="evenodd" class="shp1" d="M609.31 405.88C635.14 411.11 659.44 420.18 682.2 433.09C704.96 446.01 722.33 464.62 734.32 488.91C746.32 513.2 752.32 542.88 752.32 577.94C752.32 646.83 719.41 697.26 653.6 729.25C741.55 755.08 785.53 816.59 785.53 913.77C785.53 983.27 760.92 1035.71 711.72 1071.08C662.52 1106.44 601.93 1124.13 529.97 1124.13L177.53 1124.13L177.53 398.03L519.82 398.03C553.65 398.03 583.48 400.65 609.31 405.88ZM597.32 604.7C597.32 549.34 560.72 521.66 487.53 521.66L337.14 521.66L337.14 691.42L499.52 691.42C564.72 691.42 597.32 662.52 597.32 604.7ZM625.92 904.55C625.92 835.05 587.79 800.29 511.52 800.29L337.14 800.29L337.14 1000.5L507.82 1000.5C586.55 1000.5 625.92 968.51 625.92 904.55ZM1177.18 1011.57C1199.62 999.27 1214.24 982.66 1221 961.75L1348.32 961.75C1310.19 1079.22 1228.08 1137.97 1101.98 1137.97C1019.57 1137.97 954.06 1112.75 905.47 1062.31C856.87 1011.87 832.58 945.14 832.58 862.11C832.58 782.14 857.8 715.72 908.24 662.82C958.68 609.93 1023.26 583.48 1101.98 583.48C1181.33 583.48 1243.91 610.7 1289.73 665.13C1335.56 719.56 1358.47 787.37 1358.47 868.56C1358.47 880.86 1358.16 890.09 1357.55 896.24L978.35 896.24C978.35 938.68 989.43 971.59 1011.57 994.96C1033.71 1018.33 1065.7 1030.02 1107.52 1030.02C1131.51 1030.02 1154.73 1023.87 1177.18 1011.57ZM1014.34 722.79C992.81 743.09 980.82 770.46 978.35 804.9L1212.7 804.9C1205.93 729.87 1167.79 692.35 1098.29 692.35C1063.85 692.35 1035.86 702.49 1014.34 722.79ZM948.83 446.93L1243.14 446.93L1243.14 517.97L948.83 517.97L948.83 446.93Z" />
</svg>