<svg version="1.2" baseProfile="tiny-ps" xmlns="http://www.w3.org/2000/svg" viewBox="0 0 1792 1792" width="1024" height="1024">
	<title>behance-square-svg</title>
	<style>
		tspan { white-space:pre }
		.shp0 { fill: #053eff } 
	</style>
	<path id="Layer" fill-rule="evenodd" class="shp0" d="M1376 128C1455.33 128 1523.17 156.17 1579.5 212.5C1635.83 268.83 1664 336.67 1664 416L1664 1376C1664 1455.33 1635.83 1523.17 1579.5 1579.5C1523.17 1635.83 1455.33 1664 1376 1664L416 1664C336.67 1664 268.83 1635.83 212.5 1579.5C156.17 1523.17 128 1455.33 128 1376L128 416C128 336.67 156.17 268.83 212.5 212.5C268.83 156.17 336.67 128 416 128L1376 128ZM627 495L256 495L256 1282L638 1282C716 1282 781.67 1262.83 835 1224.5C888.33 1186.17 915 1129.33 915 1054C915 948.67 867.33 882 772 854C843.33 819.33 879 764.67 879 690C879 652 872.5 619.83 859.5 593.5C846.5 567.17 827.67 547 803 533C778.33 519 752 509.17 724 503.5C696 497.83 663.67 495 627 495ZM605 813L429 813L429 629L592 629C671.33 629 711 659 711 719C711 781.67 675.67 813 605 813ZM614 1148L429 1148L429 931L618 931C700.67 931 742 968.67 742 1044C742 1113.33 699.33 1148 614 1148ZM1264 1180C1218.67 1180 1184 1167.33 1160 1142C1136 1116.67 1124 1081 1124 1035L1535 1035C1535.67 1028.33 1536 1018.33 1536 1005C1536 917 1511.17 843.5 1461.5 784.5C1411.83 725.5 1344 696 1258 696C1172.67 696 1102.67 724.67 1048 782C993.33 839.33 966 911.33 966 998C966 1088 992.33 1160.33 1045 1215C1097.67 1269.67 1168.67 1297 1258 1297C1394.67 1297 1483.67 1233.33 1525 1106L1387 1106C1379.67 1128.67 1363.83 1146.67 1339.5 1160C1315.17 1173.33 1290 1180 1264 1180ZM1254 814C1329.33 814 1370.67 854.67 1378 936L1124 936C1126.67 898.67 1139.67 869 1163 847C1186.33 825 1216.67 814 1254 814ZM1092 625L1411 625L1411 548L1092 548L1092 625Z" />
</svg>