<svg version="1.2" baseProfile="tiny-ps" xmlns="http://www.w3.org/2000/svg" viewBox="0 0 1082 1081" width="1024" height="1023">
	<title>blogger</title>
	<style>
		tspan { white-space:pre }
		.shp0 { fill: #fc4f08 } 
		.shp1 { fill: #ffffff } 
	</style>
	<path id="Layer" class="shp0" d="M1079.23 937.9C1070.79 1006.4 1023.75 1059.47 955.97 1076.59C938.61 1080.94 932.58 1081.18 538.92 1080.94C158.29 1080.94 138.76 1080.69 124.04 1076.59C103.78 1071.29 86.41 1063.33 70.25 1052.47C56.75 1043.31 36.73 1024.01 29.25 1012.92C20.08 999.41 9.47 976.01 5.13 959.85C0.79 943.69 0.54 937.18 0.54 541.59C0.54 148.18 0.54 139.74 4.89 122.61C20.08 63.03 67.36 17.45 128.38 3.94C145.99 0.08 929.44 -0.64 948.5 3.21C999.63 13.59 1039.91 44.46 1063.31 91.01C1081.88 127.92 1080.2 87.4 1080.92 526.64C1081.4 805.96 1080.92 923.43 1079.23 937.9Z" />
	<path id="Layer copy" fill-rule="evenodd" class="shp1" d="M873.24 491.18C876.13 504.45 876.86 691.38 869.14 717.68C858.52 755.55 842.36 784.25 816.55 810.54C780.85 846.96 742.74 866.5 694.26 873.01C666.52 876.87 393.96 875.91 371.76 871.81C305.43 859.75 239.34 804.99 215.94 730.94C206.3 701.03 205.33 678.6 206.3 527.12C207.02 406.27 207.74 385.05 210.88 372.02C228 302.07 274.56 247.32 339.68 221.51C374.9 207.52 398.06 205.35 501.54 206.55C567.63 207.28 587.41 208.24 596.09 210.9C632.99 221.99 665.07 242.01 694.02 271.44C734.54 312.69 755.05 358.52 755.05 407.72C755.29 433.53 759.39 443.18 774.34 451.86C783.99 457.41 787.37 457.89 817.28 459.34C835.37 460.31 852.01 461.99 854.66 463.44C863.11 468.02 870.58 479.12 873.24 491.18ZM392.27 396.14C374.18 414.48 383.34 450.17 408.19 457.17C413.01 458.62 444.61 459.34 484.17 459.1C548.33 458.62 552.43 458.38 559.18 454.03C571.73 445.83 577.52 435.94 577.52 421.71C577.52 405.79 571.49 395.9 557.5 388.91C547.85 384.08 545.68 383.84 480.07 383.84C407.22 383.84 403.85 384.32 392.27 396.14ZM395.16 633.98C386.72 641.45 381.41 656.65 382.86 667.5C384.55 678.84 394.44 691.87 405.05 696.45C410.36 698.86 439.06 700.55 540.85 699.34L656.39 697.9L678.58 694.28C700.29 681.98 703.91 652.31 686.06 635.42C673.28 624.09 674 624.09 540.37 624.09C410.36 624.09 405.78 624.57 395.16 633.98Z" />
</svg>