<svg version="1.2" baseProfile="tiny-ps" xmlns="http://www.w3.org/2000/svg" viewBox="0 0 1792 1792" width="1024" height="1024">
	<title>facebook-square-svg</title>
	<style>
		tspan { white-space:pre }
		.shp0 { fill: #3b5998 } 
	</style>
	<path id="Layer" class="shp0" d="M1376 128C1455.33 128 1523.17 156.17 1579.5 212.5C1635.83 268.83 1664 336.67 1664 416L1664 1376C1664 1455.33 1635.83 1523.17 1579.5 1579.5C1523.17 1635.83 1455.33 1664 1376 1664L1188 1664L1188 1069L1387 1069L1417 837L1188 837L1188 689C1188 651.67 1195.83 623.67 1211.5 605C1227.17 586.33 1257.67 577 1303 577L1425 576L1425 369C1383 363 1323.67 360 1247 360C1156.33 360 1083.83 386.67 1029.5 440C975.17 493.33 948 568.67 948 666L948 837L748 837L748 1069L948 1069L948 1664L416 1664C336.67 1664 268.83 1635.83 212.5 1579.5C156.17 1523.17 128 1455.33 128 1376L128 416C128 336.67 156.17 268.83 212.5 212.5C268.83 156.17 336.67 128 416 128L1376 128Z" />
</svg>