<svg version="1.2" baseProfile="tiny-ps" xmlns="http://www.w3.org/2000/svg" viewBox="0 0 1536 1536" width="1024" height="1024">
	<title>facebook</title>
	<style>
		tspan { white-space:pre }
		.shp0 { fill: #3b5998 } 
		.shp1 { fill: #ffffff } 
	</style>
	<path id="Layer" class="shp0" d="M1248 0C1327.33 0 1395.17 28.17 1451.5 84.5C1507.83 140.83 1536 208.67 1536 288L1536 1248C1536 1327.33 1507.83 1395.17 1451.5 1451.5C1395.17 1507.83 1327.33 1536 1248 1536L288 1536C208.67 1536 140.83 1507.83 84.5 1451.5C28.17 1395.17 0 1327.33 0 1248L0 288C0 208.67 28.17 140.83 84.5 84.5C140.83 28.17 208.67 0 288 0L1248 0Z" />
	<path id="Layer copy" class="shp1" d="M1060 1536L1060 941L1259 941L1289 709L1060 709L1060 561C1060 523.67 1067.83 495.67 1083.5 477C1099.17 458.33 1129.67 449 1175 449L1297 448L1297 241C1255 235 1195.67 232 1119 232C1028.33 232 955.83 258.67 901.5 312C847.17 365.33 820 440.67 820 538L820 709L620 709L620 941L820 941L820 1536L1060 1536Z" />
</svg>