<svg version="1.2" baseProfile="tiny-ps" xmlns="http://www.w3.org/2000/svg" viewBox="0 0 1536 1536" width="1536" height="1536">
	<title>facebook-square-svg-svg</title>
	<style>
		tspan { white-space:pre }
		.shp0 { fill: #bc2a8d } 
		.shp1 { fill: #ffffff } 
	</style>
	<path id="Layer" class="shp0" d="M1248 0C1327.33 0 1395.17 28.17 1451.5 84.5C1507.83 140.83 1536 208.67 1536 288L1536 1248C1536 1327.33 1507.83 1395.17 1451.5 1451.5C1395.17 1507.83 1327.33 1536 1248 1536L288 1536C208.67 1536 140.83 1507.83 84.5 1451.5C28.17 1395.17 0 1327.33 0 1248L0 288C0 208.67 28.17 140.83 84.5 84.5C140.83 28.17 208.67 0 288 0L1248 0Z" />
	<path id="Layer" fill-rule="evenodd" class="shp1" d="M1374.56 768C1374.56 888.58 1373.24 972.03 1370.61 1018.36C1365.35 1127.89 1332.7 1212.65 1272.68 1272.68C1212.65 1332.7 1127.89 1365.35 1018.36 1370.61C972.03 1373.24 888.58 1374.56 768 1374.56C647.42 1374.56 563.97 1373.24 517.64 1370.61C408.11 1365.35 323.35 1332.7 263.32 1272.68C203.3 1212.65 170.65 1127.89 165.39 1018.36C162.76 972.03 161.44 888.58 161.44 768C161.44 647.42 162.76 563.97 165.39 517.64C170.65 408.11 203.3 323.35 263.32 263.32C323.35 203.3 408.11 170.65 517.64 165.39C563.97 162.76 647.42 161.44 768 161.44C888.58 161.44 972.03 162.76 1018.36 165.39C1127.89 170.65 1212.65 203.3 1272.68 263.32C1332.7 323.35 1365.35 408.11 1370.61 517.64C1373.24 563.97 1374.56 647.42 1374.56 768ZM768 270.43C764.31 270.43 744.17 270.29 707.58 270.03C670.99 269.77 643.21 269.77 624.26 270.03C605.3 270.29 579.89 271.08 548.04 272.4C516.19 273.72 489.07 276.35 466.69 280.3C444.32 284.25 425.49 289.12 410.22 294.91C383.9 305.44 360.73 320.72 340.72 340.72C320.72 360.73 305.44 383.9 294.91 410.22C289.12 425.49 284.25 444.32 280.3 466.69C276.35 489.07 273.72 516.19 272.4 548.04C271.08 579.89 270.29 605.3 270.03 624.26C269.77 643.21 269.77 670.99 270.03 707.58C270.29 744.17 270.43 764.31 270.43 768C270.43 771.69 270.29 791.83 270.03 828.42C269.77 865.01 269.77 892.79 270.03 911.74C270.29 930.7 271.08 956.11 272.4 987.96C273.72 1019.81 276.35 1046.93 280.3 1069.31C284.25 1091.68 289.12 1110.51 294.91 1125.78C305.44 1152.1 320.72 1175.27 340.72 1195.28C360.73 1215.28 383.9 1230.56 410.22 1241.09C425.49 1246.88 444.32 1251.75 466.69 1255.7C489.07 1259.65 516.19 1262.28 548.04 1263.6C579.89 1264.92 605.3 1265.71 624.26 1265.97C643.21 1266.23 670.99 1266.23 707.58 1265.97C744.17 1265.71 764.31 1265.57 768 1265.57C771.69 1265.57 791.83 1265.71 828.42 1265.97C865.01 1266.23 892.79 1266.23 911.74 1265.97C930.7 1265.71 956.11 1264.92 987.96 1263.6C1019.81 1262.28 1046.93 1259.65 1069.31 1255.7C1091.68 1251.75 1110.51 1246.88 1125.78 1241.09C1152.1 1230.56 1175.27 1215.28 1195.28 1195.28C1215.28 1175.27 1230.56 1152.1 1241.09 1125.78C1246.88 1110.51 1251.75 1091.68 1255.7 1069.31C1259.65 1046.93 1262.28 1019.81 1263.6 987.96C1264.92 956.11 1265.71 930.7 1265.97 911.74C1266.23 892.79 1266.23 865.01 1265.97 828.42C1265.71 791.83 1265.57 771.69 1265.57 768C1265.57 764.31 1265.71 744.17 1265.97 707.58C1266.23 670.99 1266.23 643.21 1265.97 624.26C1265.71 605.3 1264.92 579.89 1263.6 548.04C1262.28 516.19 1259.65 489.07 1255.7 466.69C1251.75 444.32 1246.88 425.49 1241.09 410.22C1230.56 383.9 1215.28 360.73 1195.28 340.72C1175.27 320.72 1152.1 305.44 1125.78 294.91C1110.51 289.12 1091.68 284.25 1069.31 280.3C1046.93 276.35 1019.81 273.72 987.96 272.4C956.11 271.08 930.7 270.29 911.74 270.03C892.79 269.77 865.01 269.77 828.42 270.03C791.83 270.29 771.69 270.43 768 270.43ZM1164.48 444.18C1164.48 464.19 1157.37 481.3 1143.15 495.52C1128.94 509.74 1111.82 516.85 1091.82 516.85C1071.81 516.85 1054.7 509.74 1040.48 495.52C1026.26 481.3 1019.15 464.19 1019.15 444.18C1019.15 424.18 1026.26 407.06 1040.48 392.85C1054.7 378.63 1071.81 371.52 1091.82 371.52C1111.82 371.52 1128.94 378.63 1143.15 392.85C1157.37 407.06 1164.48 424.18 1164.48 444.18ZM1079.18 768C1079.18 854.35 1048.91 927.8 988.35 988.35C927.8 1048.91 854.35 1079.18 768 1079.18C681.65 1079.18 608.2 1048.91 547.65 988.35C487.09 927.8 456.82 854.35 456.82 768C456.82 681.65 487.09 608.2 547.65 547.65C608.2 487.09 681.65 456.82 768 456.82C854.35 456.82 927.8 487.09 988.35 547.65C1048.91 608.2 1079.18 681.65 1079.18 768ZM970.19 768C970.19 712.19 950.44 664.54 910.95 625.05C871.46 585.56 823.81 565.81 768 565.81C712.19 565.81 664.54 585.56 625.05 625.05C585.56 664.54 565.81 712.19 565.81 768C565.81 823.81 585.56 871.46 625.05 910.95C664.54 950.44 712.19 970.19 768 970.19C823.81 970.19 871.46 950.44 910.95 910.95C950.44 871.46 970.19 823.81 970.19 768Z" />
</svg>
