<svg version="1.2" baseProfile="tiny-ps" xmlns="http://www.w3.org/2000/svg" viewBox="0 0 1792 1792" width="1024" height="1024">
	<title>instagram-svg</title>
	<style>
		tspan { white-space:pre }
		.shp0 { fill: #bc2a8d } 
	</style>
	<path id="Layer" fill-rule="evenodd" class="shp0" d="M1664 896C1664 1048.67 1662.33 1154.33 1659 1213C1652.33 1351.67 1611 1459 1535 1535C1459 1611 1351.67 1652.33 1213 1659C1154.33 1662.33 1048.67 1664 896 1664C743.33 1664 637.67 1662.33 579 1659C440.33 1652.33 333 1611 257 1535C181 1459 139.67 1351.67 133 1213C129.67 1154.33 128 1048.67 128 896C128 743.33 129.67 637.67 133 579C139.67 440.33 181 333 257 257C333 181 440.33 139.67 579 133C637.67 129.67 743.33 128 896 128C1048.67 128 1154.33 129.67 1213 133C1351.67 139.67 1459 181 1535 257C1611 333 1652.33 440.33 1659 579C1662.33 637.67 1664 743.33 1664 896ZM896 266C891.33 266 865.83 265.83 819.5 265.5C773.17 265.17 738 265.17 714 265.5C690 265.83 657.83 266.83 617.5 268.5C577.17 270.17 542.83 273.5 514.5 278.5C486.17 283.5 462.33 289.67 443 297C409.67 310.33 380.33 329.67 355 355C329.67 380.33 310.33 409.67 297 443C289.67 462.33 283.5 486.17 278.5 514.5C273.5 542.83 270.17 577.17 268.5 617.5C266.83 657.83 265.83 690 265.5 714C265.17 738 265.17 773.17 265.5 819.5C265.83 865.83 266 891.33 266 896C266 900.67 265.83 926.17 265.5 972.5C265.17 1018.83 265.17 1054 265.5 1078C265.83 1102 266.83 1134.17 268.5 1174.5C270.17 1214.83 273.5 1249.17 278.5 1277.5C283.5 1305.83 289.67 1329.67 297 1349C310.33 1382.33 329.67 1411.67 355 1437C380.33 1462.33 409.67 1481.67 443 1495C462.33 1502.33 486.17 1508.5 514.5 1513.5C542.83 1518.5 577.17 1521.83 617.5 1523.5C657.83 1525.17 690 1526.17 714 1526.5C738 1526.83 773.17 1526.83 819.5 1526.5C865.83 1526.17 891.33 1526 896 1526C900.67 1526 926.17 1526.17 972.5 1526.5C1018.83 1526.83 1054 1526.83 1078 1526.5C1102 1526.17 1134.17 1525.17 1174.5 1523.5C1214.83 1521.83 1249.17 1518.5 1277.5 1513.5C1305.83 1508.5 1329.67 1502.33 1349 1495C1382.33 1481.67 1411.67 1462.33 1437 1437C1462.33 1411.67 1481.67 1382.33 1495 1349C1502.33 1329.67 1508.5 1305.83 1513.5 1277.5C1518.5 1249.17 1521.83 1214.83 1523.5 1174.5C1525.17 1134.17 1526.17 1102 1526.5 1078C1526.83 1054 1526.83 1018.83 1526.5 972.5C1526.17 926.17 1526 900.67 1526 896C1526 891.33 1526.17 865.83 1526.5 819.5C1526.83 773.17 1526.83 738 1526.5 714C1526.17 690 1525.17 657.83 1523.5 617.5C1521.83 577.17 1518.5 542.83 1513.5 514.5C1508.5 486.17 1502.33 462.33 1495 443C1481.67 409.67 1462.33 380.33 1437 355C1411.67 329.67 1382.33 310.33 1349 297C1329.67 289.67 1305.83 283.5 1277.5 278.5C1249.17 273.5 1214.83 270.17 1174.5 268.5C1134.17 266.83 1102 265.83 1078 265.5C1054 265.17 1018.83 265.17 972.5 265.5C926.17 265.83 900.67 266 896 266ZM1398 486C1398 511.33 1389 533 1371 551C1353 569 1331.33 578 1306 578C1280.67 578 1259 569 1241 551C1223 533 1214 511.33 1214 486C1214 460.67 1223 439 1241 421C1259 403 1280.67 394 1306 394C1331.33 394 1353 403 1371 421C1389 439 1398 460.67 1398 486ZM1290 896C1290 1005.33 1251.67 1098.33 1175 1175C1098.33 1251.67 1005.33 1290 896 1290C786.67 1290 693.67 1251.67 617 1175C540.33 1098.33 502 1005.33 502 896C502 786.67 540.33 693.67 617 617C693.67 540.33 786.67 502 896 502C1005.33 502 1098.33 540.33 1175 617C1251.67 693.67 1290 786.67 1290 896ZM1152 896C1152 825.33 1127 765 1077 715C1027 665 966.67 640 896 640C825.33 640 765 665 715 715C665 765 640 825.33 640 896C640 966.67 665 1027 715 1077C765 1127 825.33 1152 896 1152C966.67 1152 1027 1127 1077 1077C1127 1027 1152 966.67 1152 896Z" />
</svg>