<svg version="1.2" baseProfile="tiny-ps" xmlns="http://www.w3.org/2000/svg" viewBox="0 0 1536 1536" width="1024" height="1024">
	<title>linkedin</title>
	<style>
		tspan { white-space:pre }
		.shp0 { fill: #0965c8 } 
		.shp1 { fill: #ffffff } 
	</style>
	<path id="Layer" fill-rule="evenodd" class="shp0" d="M1536 288L1536 1248C1536 1327.33 1507.83 1395.17 1451.5 1451.5C1395.17 1507.83 1327.33 1536 1248 1536L288 1536C208.67 1536 140.83 1507.83 84.5 1451.5C28.17 1395.17 0 1327.33 0 1248L0 288C0 208.67 28.17 140.83 84.5 84.5C140.83 28.17 208.67 0 288 0L1248 0C1327.33 0 1395.17 28.17 1451.5 84.5C1507.83 140.83 1536 208.67 1536 288ZM824 693L826 693L826 689.83C825.33 690.88 824.66 691.94 824 693Z" />
	<path id="Layer copy" fill-rule="evenodd" class="shp1" d="M447 463.5C423 486.5 391.33 498 352 498L351 498C313 498 282.17 486.5 258.5 463.5C234.83 440.5 223 412 223 378C223 343.33 235.17 314.67 259.5 292C283.83 269.33 315.33 258 354 258C392.67 258 423.67 269.33 447 292C470.33 314.67 482.33 343.33 483 378C483 412 471 440.5 447 463.5ZM1068 915C1068 810.33 1029.33 758 952 758C922.67 758 898 766.17 878 782.5C858 798.83 843 818.67 833 842C828.33 854 826 872.67 826 898L826 1286L595 1286C597 867.33 597 636 595 592L826 592L826 689.83C874.57 613.94 943.57 576 1033 576C1113 576 1177.33 602.33 1226 655C1274.67 707.67 1299 785.33 1299 888L1299 1286L1068 1286L1068 915ZM824 693L826 693L826 689.83C825.33 690.88 824.66 691.94 824 693ZM237 592L468 592L468 1286L237 1286L237 592Z" />
</svg>