<svg version="1.2" baseProfile="tiny-ps" xmlns="http://www.w3.org/2000/svg" viewBox="0 0 1792 1792" width="1024" height="1024">
	<title>linkedin-square-svg</title>
	<style>
		tspan { white-space:pre }
		.shp0 { fill: #0965c8 } 
	</style>
	<path id="Layer" fill-rule="evenodd" class="shp0" d="M1664 416L1664 1376C1664 1455.33 1635.83 1523.17 1579.5 1579.5C1523.17 1635.83 1455.33 1664 1376 1664L416 1664C336.67 1664 268.83 1635.83 212.5 1579.5C156.17 1523.17 128 1455.33 128 1376L128 416C128 336.67 156.17 268.83 212.5 212.5C268.83 156.17 336.67 128 416 128L1376 128C1455.33 128 1523.17 156.17 1579.5 212.5C1635.83 268.83 1664 336.67 1664 416ZM611 506C610.33 471.33 598.33 442.67 575 420C551.67 397.33 520.67 386 482 386C443.33 386 411.83 397.33 387.5 420C363.17 442.67 351 471.33 351 506C351 540 362.83 568.5 386.5 591.5C410.17 614.5 441 626 479 626L480 626C519.33 626 551 614.5 575 591.5C599 568.5 611 540 611 506ZM1196 1414L1427 1414L1427 1016C1427 913.33 1402.67 835.67 1354 783C1305.33 730.33 1241 704 1161 704C1071.57 704 1002.57 741.94 954 817.83L954 720L723 720C725 764 725 995.33 723 1414L954 1414L954 1026C954 1000.67 956.33 982 961 970C971 946.67 986 926.83 1006 910.5C1026 894.17 1050.67 886 1080 886C1157.33 886 1196 938.33 1196 1043L1196 1414ZM954 817.83L954 821L952 821C952.66 819.94 953.33 818.88 954 817.83ZM365 1414L596 1414L596 720L365 720L365 1414Z" />
</svg>