<svg version="1.2" baseProfile="tiny-ps" xmlns="http://www.w3.org/2000/svg" viewBox="0 0 1546 1546" width="1546" height="1546">
	<title>Hamzah logo-svg</title>
	<style>
		tspan { white-space:pre }
		.shp0 { fill: #26282a } 
		.shp1 { fill: #ecf0f1 } 
	</style>
	<path class="shp0" d="M0 285C0 127.6 127.6 0 285 0L1251 0C1408.4 0 1536 127.6 1536 285L1536 1251C1536 1408.4 1408.4 1536 1251 1536L285 1536C127.6 1536 0 1408.4 0 1251L0 285Z" />
	<path fill-rule="evenodd" class="shp1" d="M473 460.59C567 235 713.63 252 742.33 252.37C779 252 827 256.1 888.33 283.04C995.82 330.25 1005.9 389.28 1008.94 412.94C1035.33 618.52 1031.62 648 1017.25 649.28C1005.17 650.35 1001.31 630.45 993.83 613.85C932 476.55 753.2 465.22 686 462.93C618.6 460.62 516.97 490.75 519.06 551.01C520.6 595.25 531.33 644.37 641 721.7C641 721.7 676.05 743.6 714.75 756.26C819.69 790.57 884.5 803.11 1014 754.53C1103.07 721.11 1255.5 631.18 1255.5 631.18L1267 642.28C1254.8 656.62 1215.79 746.93 1198 787.03C1180.25 827.03 1157.12 869.67 1140 885.03C1123 900.28 1048.96 945.89 936.88 1001.76C551 1194.11 563.71 1371.44 530 1372.02C520.5 1372.18 517.43 1364.97 520 1339C547.75 1059.14 646 988 646 988C564.25 959.03 501.5 903.05 470.14 858.3C405.82 766.5 400.63 634.26 473 460.59ZM542.58 752.76C489 603.78 490.25 554.28 496 525.11C508.41 462.13 590 437.62 635 429.35C635 429.35 642.5 420.85 650 400.68C652.67 389.52 663.17 370.52 628.83 362.68C605.17 355.68 593.33 347.68 589 331.85C559.83 381.52 578.17 394.35 585.67 399.68C513.5 426.55 474.33 469.7 482.03 568.03C486.48 624.85 514.83 705.18 534.83 756.18C534.83 756.18 541.67 771.26 545.5 771.68C546.5 768.68 545.75 760.83 542.58 752.76Z" />
</svg>