<svg version="1.2" baseProfile="tiny-ps" xmlns="http://www.w3.org/2000/svg" viewBox="0 0 1792 1792" width="1024" height="1024">
	<title>twitter-square-svg</title>
	<style>
		tspan { white-space:pre }
		.shp0 { fill: #00acee } 
	</style>
	<path id="Layer" fill-rule="evenodd" class="shp0" d="M1664 416L1664 1376C1664 1455.33 1635.83 1523.17 1579.5 1579.5C1523.17 1635.83 1455.33 1664 1376 1664L416 1664C336.67 1664 268.83 1635.83 212.5 1579.5C156.17 1523.17 128 1455.33 128 1376L128 416C128 336.67 156.17 268.83 212.5 212.5C268.83 156.17 336.67 128 416 128L1376 128C1455.33 128 1523.17 156.17 1579.5 212.5C1635.83 268.83 1664 336.67 1664 416ZM1408 610C1370.67 626.67 1330.33 638 1287 644C1332.33 617.33 1363.33 578.33 1380 527C1336.67 552.33 1292 569.33 1246 578C1205.33 534 1154.33 512 1093 512C1035 512 985.5 532.5 944.5 573.5C903.5 614.5 883 664 883 722C883 741.33 884.67 757.33 888 770C802 765.33 721.33 743.67 646 705C570.67 666.33 506.67 614.67 454 550C434.67 583.33 425 618.67 425 656C425 732 455.33 790.33 516 831C484.67 830.33 451.33 821.67 416 805L416 807C416 857 432.67 901.5 466 940.5C499.33 979.5 540.33 1003.67 589 1013C569.67 1018.33 552.67 1021 538 1021C529.33 1021 516.33 1019.67 499 1017C513 1059 537.83 1093.67 573.5 1121C609.17 1148.33 649.67 1162.33 695 1163C617.67 1223 530.67 1253 434 1253C416.67 1253 400 1252 384 1250C482.67 1312.67 590 1344 706 1344C780.67 1344 850.67 1332.17 916 1308.5C981.33 1284.83 1037.33 1253.17 1084 1213.5C1130.67 1173.83 1170.83 1128.17 1204.5 1076.5C1238.17 1024.83 1263.17 970.83 1279.5 914.5C1295.83 858.17 1304 802 1304 746C1304 734 1303.67 725 1303 719C1345 689 1380 652.67 1408 610Z" />
</svg>