<svg version="1.2" baseProfile="tiny-ps" xmlns="http://www.w3.org/2000/svg" viewBox="0 0 1536 1536" width="1536" height="1536">
	<title>behance-svg</title>
	<style>
		tspan { white-space:pre }
		.shp0 { fill: #00acee } 
		.shp1 { fill: #ffffff } 
	</style>
	<path id="Layer copy" fill-rule="evenodd" class="shp0" d="M1248 0C1327.33 0 1395.17 28.17 1451.5 84.5C1507.83 140.83 1536 208.67 1536 288L1536 1248C1536 1327.33 1507.83 1395.17 1451.5 1451.5C1395.17 1507.83 1327.33 1536 1248 1536L288 1536C208.67 1536 140.83 1507.83 84.5 1451.5C28.17 1395.17 0 1327.33 0 1248L0 288C0 208.67 28.17 140.83 84.5 84.5C140.83 28.17 208.67 0 288 0L1248 0Z" />
	<path id="Layer" fill-rule="evenodd" class="shp1" d="M1175 591C1175.67 597 1176 606 1176 618C1176 674 1167.83 730.17 1151.5 786.5C1135.17 842.83 1110.17 896.83 1076.5 948.5C1042.83 1000.17 1002.67 1045.83 956 1085.5C909.33 1125.17 853.33 1156.83 788 1180.5C722.67 1204.17 652.67 1216 578 1216C462 1216 354.67 1184.67 256 1122C272 1124 288.67 1125 306 1125C402.67 1125 489.67 1095 567 1035C521.67 1034.33 481.17 1020.33 445.5 993C409.83 965.67 385 931 371 889C388.33 891.67 401.33 893 410 893C424.67 893 441.67 890.33 461 885C412.33 875.67 371.33 851.5 338 812.5C304.67 773.5 288 729 288 679L288 677C323.33 693.67 356.67 702.33 388 703C327.33 662.33 297 604 297 528C297 490.67 306.67 455.33 326 422C378.67 486.67 442.67 538.33 518 577C593.33 615.67 674 637.33 760 642C756.67 629.33 755 613.33 755 594C755 536 775.5 486.5 816.5 445.5C857.5 404.5 907 384 965 384C1026.33 384 1077.33 406 1118 450C1164 441.33 1208.67 424.33 1252 399C1235.33 450.33 1204.33 489.33 1159 516C1202.33 510 1242.67 498.67 1280 482C1252 524.67 1217 561 1175 591Z" />
</svg>