<svg version="1.2" baseProfile="tiny-ps" xmlns="http://www.w3.org/2000/svg" viewBox="0 0 1536 1536" width="1536" height="1536">
	<title>twitter-svg</title>
	<style>
		tspan { white-space:pre }
		.shp0 { fill: #25d366 } 
		.shp1 { fill: #ffffff } 
	</style>
	<path id="Layer copy" fill-rule="evenodd" class="shp0" d="M1248 0C1327.33 0 1395.17 28.17 1451.5 84.5C1507.83 140.83 1536 208.67 1536 288L1536 1248C1536 1327.33 1507.83 1395.17 1451.5 1451.5C1395.17 1507.83 1327.33 1536 1248 1536L288 1536C208.67 1536 140.83 1507.83 84.5 1451.5C28.17 1395.17 0 1327.33 0 1248L0 288C0 208.67 28.17 140.83 84.5 84.5C140.83 28.17 208.67 0 288 0L1248 0Z" />
	<path id="Layer" fill-rule="evenodd" class="shp1" d="M778.67 166.86C856.44 166.86 930.78 182.11 1001.69 212.61C1072.6 243.11 1133.72 284.03 1185.06 335.36C1236.4 386.7 1277.32 447.83 1307.82 518.73C1338.31 589.64 1353.56 663.98 1353.56 741.75C1353.56 819.52 1338.31 893.86 1307.82 964.77C1277.32 1035.68 1236.4 1096.8 1185.06 1148.14C1133.72 1199.48 1072.6 1240.39 1001.69 1270.89C930.78 1301.39 856.44 1316.64 778.67 1316.64C679.56 1316.64 586.79 1292.75 500.38 1244.97L182.44 1347.14L286.13 1038.34C231.23 947.87 203.79 849 203.79 741.75C203.79 663.98 219.04 589.64 249.53 518.73C280.03 447.83 320.95 386.7 372.29 335.36C423.63 284.03 484.75 243.11 555.66 212.61C626.57 182.11 700.9 166.86 778.67 166.86ZM778.67 1220.57C843.23 1220.57 905.11 1207.86 964.33 1182.45C1023.55 1157.03 1074.51 1122.98 1117.2 1080.28C1159.9 1037.58 1193.96 986.62 1219.37 927.41C1244.79 868.19 1257.49 806.31 1257.49 741.75C1257.49 677.2 1244.79 615.31 1219.37 556.09C1193.96 496.88 1159.9 445.92 1117.2 403.22C1074.51 360.53 1023.55 326.47 964.33 301.05C905.11 275.64 843.23 262.93 778.67 262.93C714.12 262.93 652.23 275.64 593.02 301.05C533.8 326.47 482.84 360.53 440.15 403.22C397.45 445.92 363.39 496.88 337.98 556.09C312.56 615.31 299.85 677.2 299.85 741.75C299.85 844.94 330.35 938.46 391.35 1022.33L331.12 1199.98L515.63 1141.28C595.94 1194.14 683.62 1220.57 778.67 1220.57ZM933.45 816.47C940.06 816.47 964.84 827.65 1007.79 850.02C1050.74 872.38 1073.49 885.85 1076.03 890.43C1077.05 892.97 1077.56 896.78 1077.56 901.87C1077.56 918.64 1073.23 937.96 1064.59 959.81C1056.46 979.64 1038.42 996.28 1010.46 1009.75C982.5 1023.22 956.58 1029.96 932.69 1029.96C903.72 1029.96 855.43 1014.2 787.82 982.69C738.01 959.81 694.8 929.82 658.21 892.72C621.61 855.61 584 808.59 545.36 751.66C508.77 697.27 490.72 647.97 491.23 603.75L491.23 597.65C492.76 551.39 511.56 511.24 547.65 477.18C559.85 466 573.07 460.41 587.3 460.41C590.35 460.41 594.92 460.79 601.02 461.55C607.12 462.31 611.95 462.69 615.51 462.69C625.17 462.69 631.9 464.35 635.71 467.65C639.53 470.95 643.47 477.94 647.53 488.62C651.6 498.78 659.99 521.15 672.69 555.71C685.4 590.28 691.75 609.34 691.75 612.9C691.75 623.57 682.99 638.18 665.45 656.74C647.91 675.29 639.15 687.11 639.15 692.19C639.15 695.75 640.42 699.56 642.96 703.63C660.24 740.73 686.16 775.55 720.73 808.08C749.19 835.02 787.57 860.69 835.86 885.09C841.96 888.65 847.55 890.43 852.63 890.43C860.26 890.43 873.98 878.1 893.8 853.45C913.63 828.8 926.84 816.47 933.45 816.47Z" />
</svg>