<svg version="1.2" baseProfile="tiny-ps" xmlns="http://www.w3.org/2000/svg" viewBox="0 0 1792 1792" width="1024" height="1024">
	<title>youtube-square-svg</title>
	<style>
		tspan { white-space:pre }
		.shp0 { fill: #ff0000 } 
	</style>
	<path id="Layer" fill-rule="evenodd" class="shp0" d="M1664 416L1664 1376C1664 1455.33 1635.83 1523.17 1579.5 1579.5C1523.17 1635.83 1455.33 1664 1376 1664L416 1664C336.67 1664 268.83 1635.83 212.5 1579.5C156.17 1523.17 128 1455.33 128 1376L128 416C128 336.67 156.17 268.83 212.5 212.5C268.83 156.17 336.67 128 416 128L1376 128C1455.33 128 1523.17 156.17 1579.5 212.5C1635.83 268.83 1664 336.67 1664 416ZM1446 1170C1446 1052 1439.67 965.33 1427 910C1420.33 880.67 1406 856.17 1384 836.5C1362 816.83 1336.67 805.33 1308 802C1217.33 792 1080 787 896 787C712.67 787 575.67 792 485 802C455.67 805.33 430.17 816.83 408.5 836.5C386.83 856.17 372.67 880.67 366 910C352.67 968 346 1054.67 346 1170C346 1287.33 352.67 1374 366 1430C372.67 1458.67 386.83 1483 408.5 1503C430.17 1523 455.33 1534.67 484 1538C575.33 1548 712.67 1553 896 1553C1079.33 1553 1216.67 1548 1308 1538C1336.67 1534.67 1361.83 1523 1383.5 1503C1405.17 1483 1419.33 1458.67 1426 1430C1439.33 1374 1446 1287.33 1446 1170ZM660 915L660 985L580 985L580 1408L506 1408L506 985L428 985L428 915L660 915ZM861 1041L861 1408L794 1408L794 1368C768 1398 742.67 1413 718 1413C696 1413 682 1403.67 676 1385C672 1373.67 670 1355.67 670 1331L670 1041L736 1041L736 1311C736 1327 736.33 1335.67 737 1337C737.67 1347 742.67 1352 752 1352C765.33 1352 779.33 1341.67 794 1321L794 1041L861 1041ZM1113 1152L1113 1298C1113 1332.67 1110.67 1357 1106 1371C1098 1399 1080.33 1413 1053 1413C1029.67 1413 1007 1399.33 985 1372L985 1408L918 1408L918 915L985 915L985 1076C1006.33 1049.33 1029 1036 1053 1036C1080.33 1036 1098 1050 1106 1078C1110.67 1092 1113 1116.67 1113 1152ZM1364 1281L1364 1290C1364 1309.33 1363.33 1323.67 1362 1333C1360 1347.67 1355 1361 1347 1373C1329 1399.67 1302.33 1413 1267 1413C1232.33 1413 1205.33 1400.33 1186 1375C1172 1357 1165 1328.33 1165 1289L1165 1160C1165 1120.67 1171.67 1092 1185 1074C1204.33 1048.67 1231 1036 1265 1036C1299 1036 1325 1048.67 1343 1074C1357 1093.33 1364 1122 1364 1160L1364 1236L1231 1236L1231 1301C1231 1335 1242.33 1352 1265 1352C1281 1352 1291 1343.33 1295 1326C1295 1325.33 1295.17 1323 1295.5 1319C1295.83 1315 1296 1309.5 1296 1302.5L1296 1281L1364 1281ZM980 600L980 470C980 431.33 973 402.33 959 383C939.67 357.67 913.67 345 881 345C847 345 821 357.67 803 383C789 402.33 782 431.33 782 470L782 600C782 638.67 789 667.67 803 687C821 712.33 847 725 881 725C913.67 725 939.67 712.33 959 687C973 669 980 640 980 600ZM1047 1303L1047 1146C1047 1112.67 1037.33 1096 1018 1096C1006.67 1096 995.67 1101.33 985 1112L985 1336C995.67 1346.67 1006.67 1352 1018 1352C1037.33 1352 1047 1335.67 1047 1303ZM691 519L781 223L706 223L655 418L602 223L524 223C528.67 238.33 536.33 261.33 547 292L571 361C594.33 429.67 609.67 482.33 617 519L617 720L691 720L691 519ZM913 457L913 613C913 647 902.33 664 881 664C859.67 664 849 647 849 613L849 457C849 422.33 859.67 405 881 405C902.33 405 913 422.33 913 457ZM1161 720L1228 720L1228 350L1161 350L1161 633C1146.33 653.67 1132.33 664 1119 664C1109 664 1103.67 658.67 1103 648C1102.33 646.67 1102 638 1102 622L1102 350L1035 350L1035 643C1035 667.67 1037 686 1041 698C1048.33 716 1062.67 725 1084 725C1108 725 1133.67 710 1161 680L1161 720ZM1231 1181L1297 1181L1297 1147C1297 1113 1286 1096 1264 1096C1242 1096 1231 1113 1231 1147L1231 1181Z" />
</svg>